<svg width="173" height="173" viewBox="0 0 173 173" fill="none" xmlns="http://www.w3.org/2000/svg">
<rect width="173" height="173" rx="86.5" fill="url(#paint0_linear)"/>
<path d="M43.9521 109.143V65.5C43.9521 65.5 43.9521 62.3957 46.9652 60.7522C49.9782 59.1087 83.1217 39.2957 83.1217 39.2957C83.1217 39.2957 87.3217 36.4652 91.7043 39.2957C91.7043 39.2957 131.056 61.1174 130.417 62.3957L112.978 72.6217C112.978 72.6217 109.691 64.9522 101.017 60.7522C90.7 55.7304 73.9 55.0913 61.8478 72.8957C61.8478 72.8957 53.9956 85.2217 62.1217 101.748L44.7739 111.517C44.7739 111.517 43.9521 110.97 43.9521 109.143Z" fill="white"/>
<path d="M99.9217 79.9261C97.3652 75.6348 92.7087 72.713 87.3217 72.713C79.2869 72.713 72.713 79.287 72.713 87.3217C72.713 89.8783 73.3521 92.2522 74.5391 94.3522L99.9217 79.9261Z" fill="white"/>
<path d="M74.4479 94.2609C77.0044 98.5522 81.6609 101.474 87.0479 101.474C95.0827 101.474 101.657 94.9 101.657 86.8652C101.657 84.3087 101.017 81.9348 99.8305 79.8348L74.4479 94.2609Z" fill="white"/>
<path d="M130.417 62.3957L88.0521 86.5913L130.143 111.335C131.604 110.422 130.417 62.3957 130.417 62.3957ZM117.27 88.8739H113.709V92.4348H109.874V88.8739H106.222V85.1305H109.874V81.387H113.709V85.1305H117.27V88.8739ZM129.687 88.8739H126.126V92.4348H122.291V88.8739H118.639V85.1305H122.291V81.387H126.126V85.1305H129.687V88.8739Z" fill="white"/>
<path d="M62.0305 101.657C62.0305 101.657 70.4305 117.178 88.0522 116.357C105.674 115.535 112.978 101.2 112.978 101.2L130.052 111.061C130.052 111.061 133.796 111.791 92.0696 134.526C92.0696 134.526 87.5957 137.539 82.7565 134.526C82.7565 134.526 45.0478 113.435 44.7739 111.426C44.7739 111.426 62.0305 101.657 62.0305 101.657Z" fill="white"/>
<defs>
<linearGradient id="paint0_linear" x1="-7.02538" y1="173" x2="173" y2="173" gradientUnits="userSpaceOnUse">
<stop stop-color="#1C40DE"/>
<stop offset="1" stop-color="#2AB5ED"/>
</linearGradient>
</defs>
</svg>
